PathFileType	4	(X/Y/Z)	/Users/itak/Documents/Research/Walk-IL/dataset/trc/00213_00009.trc
DataRate	CameraRate	NumFrames	NumMarkers	Units	OrigDataRate	OrigDataStartFrame	OrigNumFrames
100.000000	100.000000	4	55	mm	100.000000	52	418
Frame#	Time	RPSI			LPSI			L3			STRN			T10			C7			CLAV			RBAK			LBAK			LSHO			LUPA			LAEL			LAOL			LWTS			LWPS			LFRA			LIFD			LHPS			LHTS			RSHO			RUPA			RAEL			RAOL			RWTS			RWPS			RFRA			RIFD			RHTS			RHPS			RBHD			LFHD			RFHD			LBHD			LHIP			RHIP			RASI			LASI			LKNE			LTHI			LANK			LTIP			LTOE			LMT1			LMT5			LHEE			RKNE			RTHI			RANK			RTIP			RTOE			RMT1			RMT5			RHEE			*53			*54			
		X1	Y1	Z1	X2	Y2	Z2	X3	Y3	Z3	X4	Y4	Z4	X5	Y5	Z5	X6	Y6	Z6	X7	Y7	Z7	X8	Y8	Z8	X9	Y9	Z9	X10	Y10	Z10	X11	Y11	Z11	X12	Y12	Z12	X13	Y13	Z13	X14	Y14	Z14	X15	Y15	Z15	X16	Y16	Z16	X17	Y17	Z17	X18	Y18	Z18	X19	Y19	Z19	X20	Y20	Z20	X21	Y21	Z21	X22	Y22	Z22	X23	Y23	Z23	X24	Y24	Z24	X25	Y25	Z25	X26	Y26	Z26	X27	Y27	Z27	X28	Y28	Z28	X29	Y29	Z29	X30	Y30	Z30	X31	Y31	Z31	X32	Y32	Z32	X33	Y33	Z33	X34	Y34	Z34	X35	Y35	Z35	X36	Y36	Z36	X37	Y37	Z37	X38	Y38	Z38	X39	Y39	Z39	X40	Y40	Z40	X41	Y41	Z41	X42	Y42	Z42	X43	Y43	Z43	X44	Y44	Z44	X45	Y45	Z45	X46	Y46	Z46	X47	Y47	Z47	X48	Y48	Z48	X49	Y49	Z49	X50	Y50	Z50	X51	Y51	Z51	X52	Y52	Z52	X53	Y53	Z53	X54	Y54	Z54	X55	Y55	Z55	

53	0.52	-1650.786010742188	1056.761962890625	-93.12035369873047	-1639.856079101562	1063.24462890625	-212.3192138671875	-1651.2158203125	1138.812255859375	-172.669921875	-1401.37158203125	1325.9248046875	-149.5113067626953	-1654.497314453125	1266.322631835938	-168.4814910888672	-1595.442749023438	1525.486572265625	-174.4286956787109	-1430.918090820312	1442.540161132812	-150.809814453125	-1677.926879882812	1385.968505859375	-109.4224090576172	-1603.617797851562	1488.536499023438	-285.2633056640625	-1508.737426757812	1488.94091796875	-326.9825744628906	-1522.79833984375	1371.441040039062	-406.8642883300781	-1482.483520507812	1165.094482421875	-427.8236389160156	-1559.546508789062	1138.147705078125	-396.7516174316406	-1354.122802734375	968.2300415039062	-330.3318481445312	-1357.088500976562	939.9149780273438	-409.6284484863281	-1435.078125	1066.08203125	-426.4874267578125	-1288.681884765625	783.9077758789062	-315.5286865234375	-1316.0439453125	861.428466796875	-392.1781616210938	-1288.7275390625	881.4380493164062	-333.0438232421875	-1560.362426757812	1487.076538085938	-0.2588836252689362	-1586.381591796875	1423.498779296875	65.19643402099609	-1593.99462890625	1141.89599609375	104.8654632568359	-1630.066040039062	1134.705200195312	16.75855255126953	-1449.239135742188	933.7969360351562	54.54990768432617	-1499.5595703125	915.9821166992188	120.7319717407227	-1563.443237304688	1074.221069335938	115.4716567993164	-1426.318115234375	739.448974609375	48.60520553588867	-1404.246948242188	813.624755859375	67.0831298828125	-1455.003540039062	810.6553955078125	119.076301574707	-1584.515991210938	1673.234497070312	-146.1312561035156	-1368.311767578125	1742.805053710938	-169.2408142089844	-1404.096313476562	1743.431884765625	-75.42884063720703	-1496.939208984375	1684.284057617188	-255.1656341552734	-1532.468994140625	997.28662109375	-345.2124633789062	-1564.489868164062	1012.196166992188	21.60575866699219	-1464.301513671875	1054.212158203125	-7.488418579101562	-1433.354858398438	1036.170654296875	-289.02294921875	-1517.416259765625	509.1727600097656	-298.8283386230469	-1512.182250976562	652.9625244140625	-331.2322692871094	-1602.595458984375	40.06991958618164	-285.4818115234375	-1569.733520507812	287.7695922851562	-305.2082824707031	-1387.473266601562	47.16072845458984	-236.2718048095703	-1453.692260742188	39.8082275390625	-190.4425659179688	-1475.790161132812	41.78619384765625	-305.3109436035156	-1663.385620117188	45.91396713256836	-231.9744262695312	-1543.046630859375	516.5499877929688	-23.35200309753418	-1513.271728515625	784.4522094726562	28.79015731811523	-1630.83740234375	40.62806701660156	-66.33994293212891	-1542.428100585938	401.0149841308594	-42.31020736694336	-1416.066772460938	47.2237663269043	-72.67007446289062	-1463.756103515625	44.22343063354492	-124.9606857299805	-1526.636108398438	40.92406463623047	-22.43668746948242	-1683.223510742188	40.46584701538086	-134.4875640869141	nan	nan	nan	nan	nan	nan	
54	0.53	-1650.506958007812	1056.7578125	-92.2354736328125	-1639.908813476562	1063.3115234375	-211.4866180419922	-1651.05615234375	1139.004028320312	-171.8118591308594	-1400.999755859375	1325.811767578125	-149.1398162841797	-1654.12451171875	1266.540405273438	-167.8682708740234	-1594.8251953125	1525.577880859375	-173.8908843994141	-1430.347778320312	1442.464111328125	-150.3781890869141	-1677.372192382812	1386.158935546875	-108.6226959228516	-1603.029663085938	1488.652221679688	-284.8040161132812	-1508.101440429688	1489.032958984375	-326.4558410644531	-1521.982299804688	1371.460571289062	-406.2706909179688	-1481.684326171875	1165.093872070312	-426.7276611328125	-1558.963623046875	1138.22705078125	-396.0165100097656	-1353.577026367188	968.6248168945312	-328.2537536621094	-1356.134887695312	940.1693725585938	-407.5061340332031	-1434.305541992188	1066.185668945312	-425.0227355957031	-1288.213256835938	784.2788696289062	-312.8359069824219	-1315.276123046875	861.7390747070312	-389.78759765625	-1288.259033203125	881.7824096679688	-330.4437561035156	-1559.510620117188	1487.196533203125	0.3085338175296783	-1585.392333984375	1423.657104492188	65.84495544433594	-1593.254638671875	1141.996215820312	105.2886047363281	-1629.626098632812	1134.961669921875	17.26846694946289	-1448.75341796875	933.9205932617188	54.10410690307617	-1498.888427734375	916.0252685546875	120.4685668945312	-1562.692260742188	1074.226928710938	115.6794204711914	-1426.200317382812	739.4981079101562	47.68143463134766	-1403.8115234375	813.687744140625	66.25117492675781	-1454.433715820312	810.6302490234375	118.4368667602539	-1583.593383789062	1673.453979492188	-145.1980438232422	-1367.296752929688	1742.431518554688	-169.3066253662109	-1402.649658203125	1743.132690429688	-75.321533203125	-1496.450439453125	1684.22900390625	-254.6629943847656	-1532.916137695312	997.3897094726562	-344.7417602539062	-1563.90869140625	1012.143493652344	22.1758918762207	-1463.734008789062	1054.1640625	-7.203466415405273	-1433.7333984375	1036.15869140625	-288.803955078125	-1517.43017578125	509.22412109375	-298.6520690917969	-1512.38623046875	653.0328979492188	-331.023681640625	-1602.6025390625	40.08391952514648	-285.4812316894531	-1569.739624023438	287.8104248046875	-305.0724487304688	-1387.498168945312	47.16082000732422	-236.2742614746094	-1453.710693359375	39.81809234619141	-190.4522247314453	-1475.799438476562	41.79155349731445	-305.3099670410156	-1663.385131835938	45.90280532836914	-231.9700622558594	-1542.989868164062	516.4427490234375	-23.14305305480957	-1512.837768554688	784.362548828125	29.12142181396484	-1630.856811523438	40.59453582763672	-66.33662414550781	-1542.397338867188	400.9546508789062	-42.17142868041992	-1416.071044921875	47.22428512573242	-72.66291046142578	-1463.763427734375	44.23350143432617	-124.9601821899414	-1526.650390625	40.92253494262695	-22.41885375976562	-1683.237182617188	40.42493057250977	-134.4716186523438	nan	nan	nan	nan	nan	nan	
55	0.54	-1650.20849609375	1056.776000976562	-91.35243225097656	-1639.947631835938	1063.381591796875	-210.6568145751953	-1650.857177734375	1139.2119140625	-170.954833984375	-1400.6142578125	1325.695434570312	-148.7327575683594	-1653.681762695312	1266.742797851562	-167.2336273193359	-1594.154907226562	1525.672729492188	-173.3264312744141	-1429.720581054688	1442.380004882812	-149.9141540527344	-1676.770385742188	1386.367065429688	-107.8209991455078	-1602.391235351562	1488.7802734375	-284.2966918945312	-1507.424194335938	1489.1318359375	-325.9122619628906	-1521.230102539062	1371.501342773438	-405.6835021972656	-1481.141845703125	1165.087646484375	-425.7476806640625	-1558.636352539062	1138.346923828125	-395.34228515625	-1353.253662109375	969.0316772460938	-326.334228515625	-1355.47998046875	940.390869140625	-405.5234680175781	-1433.832763671875	1066.277099609375	-423.695556640625	-1287.9736328125	784.66748046875	-310.2719421386719	-1314.79541015625	862.02978515625	-387.5313415527344	-1288.018188476562	882.1471557617188	-328.044677734375	-1558.609252929688	1487.323120117188	0.9024825692176819	-1584.3818359375	1423.81982421875	66.51362609863281	-1592.57568359375	1142.117309570312	105.746696472168	-1629.243408203125	1135.241577148438	17.8238639831543	-1448.333862304688	934.0601806640625	53.70999526977539	-1498.24462890625	916.0852661132812	120.2288818359375	-1562.0185546875	1074.261108398438	115.9286575317383	-1426.041381835938	739.57373046875	46.77402114868164	-1403.36279296875	813.8019409179688	65.43722534179688	-1453.880737304688	810.64501953125	117.8232116699219	-1582.614624023438	1673.67236328125	-144.2508392333984	-1366.225708007812	1742.054931640625	-169.3589324951172	-1401.150634765625	1742.830444335938	-75.20704650878906	-1495.9111328125	1684.171142578125	-254.1400451660156	-1533.306274414062	997.493896484375	-344.2430725097656	-1563.301391601562	1012.066467285156	22.77205657958984	-1463.154663085938	1054.111938476562	-6.909107208251953	-1434.057006835938	1036.150024414062	-288.5429077148438	-1517.419311523438	509.2815856933594	-298.4587097167969	-1512.540405273438	653.1056518554688	-330.7887573242188	-1602.609130859375	40.09965896606445	-285.4808044433594	-1569.730712890625	287.854736328125	-304.9243469238281	-1387.520751953125	47.16220474243164	-236.2758331298828	-1453.7265625	39.8303337097168	-190.4632415771484	-1475.808837890625	41.79705047607422	-305.3088073730469	-1663.383666992188	45.89109802246094	-231.9654083251953	-1542.921875	516.33984375	-22.90669250488281	-1512.4208984375	784.2691040039062	29.49600601196289	-1630.873168945312	40.55854034423828	-66.33016204833984	-1542.35986328125	400.8862915039062	-42.0260009765625	-1416.078247070312	47.22941970825195	-72.65525817871094	-1463.772705078125	44.24252700805664	-124.9604339599609	-1526.662841796875	40.92109298706055	-22.40376472473145	-1683.250610351562	40.38239288330078	-134.4553985595703	nan	nan	nan	nan	nan	nan	
56	0.55	-1649.8837890625	1056.805541992188	-90.47550964355469	-1639.964477539062	1063.453979492188	-209.83056640625	-1650.61962890625	1139.427368164062	-170.0995483398438	-1400.208984375	1325.57373046875	-148.2926635742188	-1653.177856445312	1266.93310546875	-166.574951171875	-1593.430297851562	1525.771728515625	-172.728515625	-1429.035766601562	1442.287963867188	-149.4275512695312	-1676.118530273438	1386.593139648438	-107.018669128418	-1601.714599609375	1488.925048828125	-283.7440490722656	-1506.7099609375	1489.2314453125	-325.3512268066406	-1520.559936523438	1371.564331054688	-405.1086120605469	-1480.866577148438	1165.074462890625	-424.8985290527344	-1558.569946289062	1138.505126953125	-394.7389221191406	-1353.180053710938	969.4347534179688	-324.5848693847656	-1355.137329101562	940.5721435546875	-403.6954345703125	-1433.657348632812	1066.348510742188	-422.5140991210938	-1287.962768554688	785.0859375	-307.8377990722656	-1314.590087890625	862.2913208007812	-385.4124450683594	-1288.004150390625	882.52978515625	-325.8585510253906	-1557.653442382812	1487.452392578125	1.522690653800964	-1583.356079101562	1423.98046875	67.20325469970703	-1591.964477539062	1142.250854492188	106.2486953735352	-1628.924194335938	1135.535034179688	18.4274787902832	-1447.995849609375	934.2098388671875	53.38104248046875	-1497.642578125	916.1549072265625	120.017448425293	-1561.432861328125	1074.318725585938	116.2205963134766	-1425.825927734375	739.6846923828125	45.88622283935547	-1402.92822265625	813.9671020507812	64.65477752685547	-1453.342651367188	810.6979370117188	117.2379531860352	-1581.575561523438	1673.881958007812	-143.2938232421875	-1365.097900390625	1741.672485351562	-169.3919525146484	-1399.601318359375	1742.529174804688	-75.08338165283203	-1495.317993164062	1684.109375	-253.5960540771484	-1533.639770507812	997.6005249023438	-343.7196655273438	-1562.6533203125	1011.966796875	23.40448760986328	-1462.56494140625	1054.050048828125	-6.59846305847168	-1434.3076171875	1036.143920898438	-288.2312927246094	-1517.376708984375	509.3435974121094	-298.2474365234375	-1512.650024414062	653.1822509765625	-330.5292358398438	-1602.614868164062	40.11672973632812	-285.4795532226562	-1569.703247070312	287.9011840820312	-304.7621154785156	-1387.539916992188	47.16567230224609	-236.2771148681641	-1453.738037109375	39.84435272216797	-190.475341796875	-1475.818603515625	41.80219268798828	-305.3065795898438	-1663.381225585938	45.87939453125	-231.9606628417969	-1542.837280273438	516.2462768554688	-22.64313125610352	-1512.014038085938	784.1672973632812	29.89795875549316	-1630.885620117188	40.51877975463867	-66.31826019287109	-1542.3134765625	400.8092346191406	-41.87453842163086	-1416.08740234375	47.23794174194336	-72.64767456054688	-1463.784423828125	44.25102615356445	-124.9607925415039	-1526.671752929688	40.91945266723633	-22.39447784423828	-1683.264526367188	40.33752059936523	-134.4406280517578	nan	nan	nan	nan	nan	nan	
